<svg width="87" height="42" viewBox="0 0 87 42" fill="none" xmlns="http://www.w3.org/2000/svg">
<path fill-rule="evenodd" clip-rule="evenodd" d="M13.867 0.799988H73.2684C74.463 0.799988 75.4586 1.67858 75.4586 2.7329V5.77869V36.5881V38.521H84.3522C85.3477 38.521 86.2105 39.2239 86.2105 40.161C86.2105 41.0396 85.4141 41.8011 84.3522 41.8011H2.78317C1.72125 41.8011 0.924805 41.0982 0.924805 40.161C0.924805 39.2824 1.72125 38.521 2.78317 38.521H11.6768V36.5881V5.77869V2.7329C11.6104 1.67858 12.606 0.799988 13.867 0.799988Z" fill="#3F4243"/>
<path d="M73.9984 4.02148H13.0706V37.4081H73.9984V4.02148Z" fill="white"/>
<path fill-rule="evenodd" clip-rule="evenodd" d="M49.9061 38.5796C49.9061 38.6382 49.9061 38.6382 49.9061 38.6967C49.9061 39.3996 49.2424 39.9853 48.446 39.9853H38.5568C37.7604 39.9853 37.0967 39.3996 37.0967 38.6967C37.0967 38.6382 37.0967 38.6382 37.0967 38.5796H49.9061Z" fill="white"/>
<path fill-rule="evenodd" clip-rule="evenodd" d="M43.5346 3.3772C44.1319 3.3772 44.5965 2.96719 44.5965 2.44004C44.5965 1.91288 44.1319 1.50287 43.5346 1.50287C42.9373 1.50287 42.4727 1.91288 42.4727 2.44004C42.4063 2.90862 42.9373 3.3772 43.5346 3.3772Z" fill="white"/>
<path fill-rule="evenodd" clip-rule="evenodd" d="M39.2867 2.67429C39.4858 2.67429 39.6185 2.55715 39.6185 2.38143C39.6185 2.20571 39.4858 2.08856 39.2867 2.08856C39.0876 2.08856 38.9548 2.20571 38.9548 2.38143C38.9548 2.49857 39.0876 2.67429 39.2867 2.67429Z" fill="white"/>
<path fill-rule="evenodd" clip-rule="evenodd" d="M76.9851 39.6924H78.8434C79.1089 39.6924 79.3744 39.9267 79.3744 40.161C79.3744 40.3953 79.1089 40.6296 78.8434 40.6296H76.9851C76.7196 40.6296 76.4541 40.3953 76.4541 40.161C76.4541 39.9267 76.7196 39.6924 76.9851 39.6924Z" fill="white"/>
<path fill-rule="evenodd" clip-rule="evenodd" d="M81.0336 39.6924H82.892C83.1575 39.6924 83.423 39.9267 83.423 40.161C83.423 40.3953 83.1575 40.6296 82.892 40.6296H81.0336C80.7682 40.6296 80.5027 40.3953 80.5027 40.161C80.5027 39.9267 80.7018 39.6924 81.0336 39.6924Z" fill="white"/>
</svg>
