<svg width="199" height="53" viewBox="0 0 199 53" fill="none" xmlns="http://www.w3.org/2000/svg">
<path d="M27.2123 22.7995H22.9183V25.1995H27.0126V28.2995H22.9183V30.6995H27.3122V33.7995H19.2234V19.6995H27.3122V22.7995H27.2123Z" fill="white"/>
<path d="M32.9044 19.6995L35.301 28.8995L38.2969 19.6995H41.1928L44.1887 28.8995L46.5853 19.6995H50.4799L46.2857 33.8995H42.491L39.6949 25.6995L36.8988 33.8995H33.1041L28.9099 19.6995H32.9044Z" fill="white"/>
<path d="M61.7641 24.4006C60.8654 23.4006 59.8668 22.8006 58.5686 22.8006C57.9694 22.8006 57.4701 22.9006 57.0707 23.1006C56.5713 23.3006 56.1719 23.6006 55.8723 23.9006C55.5727 24.2006 55.2731 24.7006 55.0734 25.1006C54.8737 25.6006 54.7738 26.1006 54.7738 26.6006C54.7738 27.2006 54.8737 27.7006 55.0734 28.2006C55.2731 28.7006 55.5727 29.1006 55.8723 29.4006C56.1719 29.8006 56.5713 30.0006 57.0707 30.2006C57.57 30.4006 58.0693 30.5006 58.5686 30.5006C59.7669 30.5006 60.7655 30.0006 61.7641 29.0006V33.4006L61.3647 33.5006C60.8654 33.9006 60.3661 34.0006 59.8668 34.1006C59.3675 34.2006 58.8682 34.2006 58.4687 34.2006C57.4701 34.2006 56.5714 34.0006 55.6726 33.6006C54.7738 33.2006 53.975 32.7006 53.2759 32.0006C52.5769 31.3006 52.0776 30.5006 51.6782 29.6006C51.2787 28.7006 51.079 27.7006 51.079 26.6006C51.079 25.5006 51.2787 24.5006 51.6782 23.6006C52.0776 22.7006 52.6768 21.9006 53.2759 21.2006C53.975 20.5006 54.7738 20.0006 55.6726 19.7006C56.5714 19.3006 57.4701 19.1006 58.4687 19.1006C59.0679 19.1006 59.5672 19.2006 60.1664 19.3006C60.6657 19.4006 61.2648 19.6006 61.864 19.9006V24.4006H61.7641Z" fill="white"/>
<path d="M63.5616 26.8003C63.5616 25.7003 63.7614 24.8003 64.1608 23.9003C64.5603 23.0003 65.0596 22.2003 65.7586 21.5003C66.4576 20.8003 67.2565 20.3003 68.2551 19.9003C69.2537 19.5003 70.2524 19.3003 71.4507 19.3003C72.5492 19.3003 73.6476 19.5003 74.6463 19.9003C75.6449 20.3003 76.4438 20.8003 77.1428 21.5003C77.8418 22.2003 78.3411 23.0003 78.7406 23.9003C79.14 24.8003 79.3397 25.8003 79.3397 26.8003C79.3397 27.8003 79.14 28.8003 78.7406 29.7003C78.3411 30.6003 77.8418 31.4003 77.1428 32.1003C76.4438 32.8003 75.6449 33.3003 74.6463 33.7003C73.6476 34.1003 72.649 34.3003 71.4507 34.3003C70.2524 34.3003 69.2537 34.1003 68.2551 33.7003C67.2565 33.3003 66.4576 32.8003 65.7586 32.1003C65.0596 31.4003 64.5603 30.6003 64.1608 29.7003C63.7614 28.8003 63.5616 27.8003 63.5616 26.8003ZM67.4562 26.8003C67.4562 27.4003 67.5561 27.9003 67.7558 28.4003C67.9555 28.9003 68.2551 29.3003 68.6546 29.6003C69.054 30.0003 69.4535 30.2003 69.9528 30.4003C70.4521 30.6003 70.9514 30.7003 71.4507 30.7003C71.95 30.7003 72.5492 30.6003 72.9486 30.4003C73.4479 30.2003 73.8474 29.9003 74.2468 29.6003C74.6463 29.2003 74.9458 28.8003 75.1456 28.4003C75.3453 27.9003 75.4451 27.4003 75.4451 26.8003C75.4451 26.2003 75.3453 25.7003 75.1456 25.2003C74.9458 24.7003 74.6463 24.3003 74.2468 24.0003C73.8474 23.6003 73.4479 23.4003 72.9486 23.2003C72.4493 23.0003 71.95 22.9003 71.4507 22.9003C70.9514 22.9003 70.3522 23.0003 69.9528 23.2003C69.4535 23.4003 69.054 23.7003 68.6546 24.0003C68.2551 24.4003 67.9555 24.8003 67.7558 25.2003C67.5561 25.7003 67.4562 26.2003 67.4562 26.8003Z" fill="white"/>
<path d="M81.0374 33.8995V19.6995H84.7322L91.5228 28.3995V19.6995H95.2177V33.8995H91.5228L84.7322 25.1995V33.8995H81.0374Z" fill="white"/>
<path d="M106.902 22.7995H102.508V25.1995H106.502V28.2995H102.508V33.8995H98.8127V19.6995H106.902V22.7995Z" fill="white"/>
<path d="M138.657 46.4005H128.671C120.383 46.4005 113.592 39.6005 113.592 31.3005H116.688C116.688 37.9005 122.08 43.2005 128.571 43.2005H138.558C145.148 43.2005 150.441 37.8005 150.441 31.3005H153.537C153.637 39.7005 146.946 46.4005 138.657 46.4005Z" fill="#ED0058"/>
<path d="M153.637 21.4005H150.541C150.541 14.8005 145.148 9.50054 138.657 9.50054H128.671C122.08 9.50054 116.788 14.9005 116.788 21.4005H113.692C113.692 13.1005 120.483 6.30054 128.771 6.30054H138.757C146.946 6.30054 153.637 13.1005 153.637 21.4005Z" fill="#ED0058"/>
<path d="M110.197 28.3007V25.2007H119.884V28.3007H110.197ZM110.197 30.8007V33.9007H120.183V30.8007H110.197ZM110.197 19.7007V22.8007H120.183V19.7007H110.197Z" fill="white"/>
<path d="M128.671 11.9004V15.0004H138.658V11.9004H128.671ZM128.671 0.900391V4.00039H138.658V0.900391H128.671Z" fill="#ED0058"/>
<path d="M128.671 48.901V52.001H138.658V48.901H128.671ZM128.671 37.801V40.901H138.658V37.801H128.671Z" fill="#ED0058"/>
<path d="M147.146 28.3007V25.2007H156.832V28.3007H147.146ZM147.146 30.8007V33.9007H157.132V30.8007H147.146ZM147.146 19.7007V22.8007H157.132V19.7007H147.146Z" fill="white"/>
<path d="M140.854 33.9007H136.261L132.766 28.4007V33.9007H129.071V19.7007H134.763C135.562 19.7007 136.261 19.8007 136.86 20.0007C137.459 20.2007 137.958 20.5007 138.358 20.9007C138.757 21.3007 139.057 21.8007 139.257 22.3007C139.456 22.8007 139.556 23.4007 139.556 24.0007C139.556 25.1007 139.257 26.0007 138.757 26.6007C138.258 27.3007 137.459 27.7007 136.461 28.0007L140.854 33.9007ZM132.766 26.0007H133.465C134.164 26.0007 134.763 25.8007 135.162 25.5007C135.562 25.2007 135.761 24.8007 135.761 24.2007C135.761 23.6007 135.562 23.2007 135.162 22.9007C134.763 22.6007 134.264 22.4007 133.465 22.4007H132.766V26.0007Z" fill="white"/>
<path d="M160.427 33.8995V19.6995H164.122L170.913 28.3995V19.6995H174.608V33.8995H170.913L164.122 25.1995V33.8995H160.427Z" fill="white"/>
<path d="M187.39 24.3997C186.491 23.3997 185.493 22.7997 184.194 22.7997C183.595 22.7997 183.096 22.8997 182.696 23.0997C182.197 23.2997 181.798 23.5997 181.498 23.8997C181.198 24.1997 180.899 24.6997 180.699 25.0997C180.499 25.5997 180.4 26.0997 180.4 26.5997C180.4 27.1997 180.499 27.6997 180.699 28.1997C180.899 28.6997 181.198 29.0997 181.498 29.3997C181.798 29.7997 182.197 29.9997 182.696 30.1997C183.196 30.3997 183.695 30.4997 184.194 30.4997C185.393 30.4997 186.391 29.9997 187.39 28.9997V33.3997L186.99 33.4997C186.391 33.6997 185.892 33.7997 185.393 33.8997C184.893 33.9997 184.394 33.9997 183.995 33.9997C182.996 33.9997 182.097 33.7997 181.198 33.3997C180.3 32.9997 179.501 32.4997 178.802 31.7997C178.103 31.0997 177.603 30.2997 177.204 29.3997C176.805 28.4997 176.605 27.4997 176.605 26.3997C176.605 25.2997 176.805 24.2997 177.204 23.3997C177.603 22.4997 178.203 21.6997 178.802 20.9997C179.501 20.2997 180.3 19.7997 181.198 19.4997C182.097 19.0997 182.996 18.8997 183.995 18.8997C184.594 18.8997 185.093 18.9997 185.692 19.0997C186.291 19.1997 186.791 19.3997 187.39 19.6997V24.3997Z" fill="white"/>
<path d="M198.674 22.7995H194.28V25.1995H198.375V28.2995H194.28V30.6995H198.674V33.7995H190.585V19.6995H198.674V22.7995Z" fill="white"/>
<path d="M0.848877 33.8995V19.6995H4.54374L11.3343 28.3995V19.6995H15.0292V33.8995H11.3343L4.54374 25.1995V33.8995H0.848877Z" fill="white"/>
</svg>
