<svg width="24" height="42" viewBox="0 0 24 42" fill="none" xmlns="http://www.w3.org/2000/svg">
<path fill-rule="evenodd" clip-rule="evenodd" d="M2.42965 0.799988H21.7434C23.0044 0.799988 24.0664 1.73716 24.0664 2.85004V39.8096C24.0664 40.9225 23.0044 41.8596 21.7434 41.8596H2.42965C1.16861 41.8596 0.106689 40.9225 0.106689 39.8096V2.85004C0.106689 1.73716 1.16861 0.799988 2.42965 0.799988Z" fill="#3F4243"/>
<path d="M22.8718 6.65729H1.23511V36.8224H22.8718V6.65729Z" fill="white"/>
<path fill-rule="evenodd" clip-rule="evenodd" d="M12.0534 4.78292C12.7171 4.78292 13.1817 4.31434 13.1817 3.78718C13.1817 3.20145 12.6507 2.79144 12.0534 2.79144C11.3897 2.79144 10.925 3.26003 10.925 3.78718C10.925 4.31434 11.3897 4.78292 12.0534 4.78292Z" fill="white"/>
<path fill-rule="evenodd" clip-rule="evenodd" d="M7.47391 4.08007C7.67302 4.08007 7.87213 3.90435 7.87213 3.72864C7.87213 3.55292 7.67302 3.3772 7.47391 3.3772C7.2748 3.3772 7.07568 3.55292 7.07568 3.72864C7.07568 3.90435 7.20843 4.08007 7.47391 4.08007Z" fill="white"/>
<path fill-rule="evenodd" clip-rule="evenodd" d="M12.0533 40.9225C12.9825 40.9225 13.7789 40.2196 13.7789 39.3996C13.7789 38.5796 12.9825 37.8767 12.0533 37.8767C11.1241 37.8767 10.3276 38.5796 10.3276 39.3996C10.3276 40.2782 11.1241 40.9225 12.0533 40.9225Z" fill="white"/>
<path fill-rule="evenodd" clip-rule="evenodd" d="M12.0532 39.8096C12.3187 39.8096 12.5178 39.6339 12.5178 39.3996C12.5178 39.1653 12.3187 38.9896 12.0532 38.9896C11.7877 38.9896 11.5886 39.1653 11.5886 39.3996C11.5886 39.6339 11.7877 39.8096 12.0532 39.8096Z" fill="#3F4243"/>
</svg>
