<svg width="59" height="42" viewBox="0 0 59 42" fill="none" xmlns="http://www.w3.org/2000/svg">
<path fill-rule="evenodd" clip-rule="evenodd" d="M3.53764 0.799988H55.1073C57.032 0.799988 58.6249 2.20574 58.6249 3.90436V38.7553C58.6249 40.4539 57.032 41.8596 55.1073 41.8596H3.53764C1.61291 41.8596 0.0200195 40.4539 0.0200195 38.7553V3.90436C0.0200195 2.20574 1.61291 0.799988 3.53764 0.799988Z" fill="#3F4243"/>
<path d="M54.0454 5.07581H4.59961V37.4667H54.0454V5.07581Z" fill="white"/>
<path fill-rule="evenodd" clip-rule="evenodd" d="M29.3556 4.19723C30.0857 4.19723 30.683 3.67007 30.683 3.02577C30.683 2.38147 30.0857 1.85431 29.3556 1.85431C28.6256 1.85431 28.0282 2.38147 28.0282 3.02577C27.9619 3.6115 28.5592 4.19723 29.3556 4.19723Z" fill="white"/>
<path fill-rule="evenodd" clip-rule="evenodd" d="M23.2495 3.37721C23.515 3.37721 23.7141 3.20149 23.7141 2.9672C23.7141 2.73291 23.515 2.55719 23.2495 2.55719C22.984 2.55719 22.7849 2.73291 22.7849 2.9672C22.8513 3.20149 23.0504 3.37721 23.2495 3.37721Z" fill="white"/>
<path fill-rule="evenodd" clip-rule="evenodd" d="M50.0631 38.931H52.3197C52.6515 38.931 52.9834 39.1653 52.9834 39.5168C52.9834 39.8096 52.7179 40.1025 52.3197 40.1025H50.0631C49.7313 40.1025 49.3994 39.8682 49.3994 39.5168C49.3994 39.2239 49.7313 38.931 50.0631 38.931Z" fill="white"/>
</svg>
