<svg width="87" height="42" fill="none" xmlns="http://www.w3.org/2000/svg"><path fill-rule="evenodd" clip-rule="evenodd" d="M13.867.8h59.401c1.195 0 2.19.879 2.19 1.933V38.52h8.894c.996 0 1.858.703 1.858 1.64 0 .879-.796 1.64-1.858 1.64H2.783c-1.062 0-1.858-.703-1.858-1.64 0-.879.796-1.64 1.858-1.64h8.894V2.733C11.61 1.679 12.606.8 13.867.8z" fill="#3F4243"/><path d="M73.998 4.021H13.071v33.387h60.927V4.021z" fill="#fff"/><path fill-rule="evenodd" clip-rule="evenodd" d="M49.906 38.58v.117c0 .703-.664 1.288-1.46 1.288h-9.89c-.796 0-1.46-.585-1.46-1.288v-.117h12.81zM43.535 3.377c.597 0 1.062-.41 1.062-.937 0-.527-.465-.937-1.062-.937-.598 0-1.062.41-1.062.937-.067.469.464.937 1.062.937zm-4.248-.703c.199 0 .331-.117.331-.293 0-.175-.132-.292-.331-.292-.2 0-.332.117-.332.292 0 .118.133.293.332.293zm37.698 37.018h1.858c.266 0 .531.235.531.469 0 .234-.265.469-.53.469h-1.859c-.265 0-.53-.235-.53-.469 0-.234.265-.469.53-.469zm4.049 0h1.858c.266 0 .531.235.531.469 0 .234-.266.469-.531.469h-1.858c-.266 0-.531-.235-.531-.469 0-.234.199-.469.53-.469z" fill="#fff"/></svg>