<svg width="199" height="53" fill="none" xmlns="http://www.w3.org/2000/svg"><path d="M27.212 22.8h-4.294v2.4h4.095v3.1h-4.095v2.4h4.394v3.1h-8.089V19.7h8.09v3.1h-.1zm5.692-3.1l2.397 9.2 2.996-9.2h2.896l2.996 9.2 2.396-9.2h3.895l-4.194 14.2H42.49l-2.796-8.2-2.796 8.2h-3.795L28.91 19.7h3.994zm28.86 4.7c-.899-1-1.897-1.6-3.195-1.6-.6 0-1.099.1-1.498.3-.5.2-.9.5-1.199.8-.3.3-.599.8-.799 1.2-.2.5-.3 1-.3 1.5 0 .6.1 1.1.3 1.6.2.5.5.9.8 1.2.299.4.698.6 1.198.8.499.2.998.3 1.498.3 1.198 0 2.197-.5 3.195-1.5v4.4l-.4.1c-.499.4-.998.5-1.497.6-.5.1-.999.1-1.398.1-.999 0-1.898-.2-2.796-.6-.9-.4-1.698-.9-2.397-1.6-.7-.7-1.198-1.5-1.598-2.4-.4-.9-.599-1.9-.599-3s.2-2.1.6-3c.399-.9.998-1.7 1.597-2.4a6.07 6.07 0 0 1 2.397-1.5c.898-.4 1.797-.6 2.796-.6.599 0 1.098.1 1.697.2.5.1 1.099.3 1.698.6v4.5h-.1zm1.798 2.4c0-1.1.2-2 .599-2.9.4-.9.899-1.7 1.598-2.4.699-.7 1.498-1.2 2.496-1.6.999-.4 1.997-.6 3.196-.6 1.098 0 2.197.2 3.195.6.999.4 1.798.9 2.497 1.6.699.7 1.198 1.5 1.598 2.4.399.9.599 1.9.599 2.9s-.2 2-.6 2.9c-.399.9-.898 1.7-1.597 2.4-.7.7-1.498 1.2-2.497 1.6-.998.4-1.997.6-3.195.6-1.199 0-2.197-.2-3.196-.6-.998-.4-1.797-.9-2.496-1.6-.7-.7-1.199-1.5-1.598-2.4-.4-.9-.6-1.9-.6-2.9zm3.894 0c0 .6.1 1.1.3 1.6.2.5.5.9.899 1.2.399.4.799.6 1.298.8.5.2.998.3 1.498.3.499 0 1.098-.1 1.498-.3.499-.2.898-.5 1.298-.8.4-.4.699-.8.899-1.2.2-.5.3-1 .3-1.6 0-.6-.1-1.1-.3-1.6-.2-.5-.5-.9-.9-1.2-.399-.4-.798-.6-1.297-.8-.5-.2-.999-.3-1.498-.3-.5 0-1.099.1-1.498.3-.5.2-.899.5-1.298.8-.4.4-.7.8-.9 1.2-.199.5-.299 1-.299 1.6zm13.581 7.1V19.7h3.695l6.79 8.7v-8.7h3.696v14.2h-3.695l-6.79-8.7v8.7h-3.696zm25.865-11.1h-4.394v2.4h3.994v3.1h-3.994v5.6h-3.695V19.7h8.089v3.1z" fill="#fff"/><path d="M138.657 46.4h-9.986c-8.288 0-15.079-6.8-15.079-15.1h3.096c0 6.6 5.392 11.9 11.883 11.9h9.987c6.59 0 11.883-5.4 11.883-11.9h3.096c.1 8.4-6.591 15.1-14.88 15.1zm14.98-25h-3.096c0-6.6-5.393-11.9-11.884-11.9h-9.986c-6.591 0-11.883 5.4-11.883 11.9h-3.096c0-8.3 6.791-15.1 15.079-15.1h9.986c8.189 0 14.88 6.8 14.88 15.1z" fill="#ED0058"/><path d="M110.197 28.3v-3.1h9.687v3.1h-9.687zm0 2.5v3.1h9.986v-3.1h-9.986zm0-11.1v3.1h9.986v-3.1h-9.986z" fill="#fff"/><path d="M128.671 11.9V15h9.987v-3.1h-9.987zm0-11V4h9.987V.9h-9.987zm0 48.001v3.1h9.987v-3.1h-9.987zm0-11.1v3.1h9.987v-3.1h-9.987z" fill="#ED0058"/><path d="M147.146 28.3v-3.1h9.686v3.1h-9.686zm0 2.5v3.1h9.986v-3.1h-9.986zm0-11.1v3.1h9.986v-3.1h-9.986zm-6.292 14.2h-4.593l-3.495-5.5v5.5h-3.695V19.7h5.692c.799 0 1.498.1 2.097.3.599.2 1.098.5 1.498.9.399.4.699.9.899 1.4.199.5.299 1.1.299 1.7 0 1.1-.299 2-.799 2.6-.499.7-1.298 1.1-2.296 1.4l4.393 5.9zm-8.088-7.9h.699c.699 0 1.298-.2 1.697-.5.4-.3.599-.7.599-1.3 0-.6-.199-1-.599-1.3-.399-.3-.898-.5-1.697-.5h-.699V26zm27.661 7.9V19.7h3.695l6.791 8.7v-8.7h3.695v14.2h-3.695l-6.791-8.7v8.7h-3.695zm26.963-9.5c-.899-1-1.897-1.6-3.196-1.6-.599 0-1.098.1-1.498.3-.499.2-.898.5-1.198.8-.3.3-.599.8-.799 1.2-.2.5-.299 1-.299 1.5 0 .6.099 1.1.299 1.6.2.5.499.9.799 1.2.3.4.699.6 1.198.8.5.2.999.3 1.498.3 1.199 0 2.197-.5 3.196-1.5v4.4l-.4.1c-.599.2-1.098.3-1.597.4-.5.1-.999.1-1.398.1-.999 0-1.898-.2-2.797-.6-.898-.4-1.697-.9-2.396-1.6-.699-.7-1.199-1.5-1.598-2.4-.399-.9-.599-1.9-.599-3s.2-2.1.599-3c.399-.9.999-1.7 1.598-2.4.699-.7 1.498-1.2 2.396-1.5.899-.4 1.798-.6 2.797-.6.599 0 1.098.1 1.697.2s1.099.3 1.698.6v4.7zm11.284-1.6h-4.394v2.4h4.095v3.1h-4.095v2.4h4.394v3.1h-8.089V19.7h8.089v3.1zM.849 33.9V19.7h3.695l6.79 8.7v-8.7h3.695v14.2h-3.695l-6.79-8.7v8.7H.849z" fill="#fff"/></svg>