<svg width="24" height="42" fill="none" xmlns="http://www.w3.org/2000/svg"><path fill-rule="evenodd" clip-rule="evenodd" d="M2.43.8h19.313c1.261 0 2.323.937 2.323 2.05v36.96c0 1.112-1.062 2.05-2.323 2.05H2.43c-1.261 0-2.323-.938-2.323-2.05V2.85C.107 1.737 1.169.8 2.43.8z" fill="#3F4243"/><path d="M22.872 6.657H1.235v30.165h21.637V6.657z" fill="#fff"/><path fill-rule="evenodd" clip-rule="evenodd" d="M12.053 4.783c.664 0 1.129-.469 1.129-.996 0-.586-.531-.996-1.129-.996-.663 0-1.128.469-1.128.996s.465.996 1.128.996zM7.474 4.08c.199 0 .398-.176.398-.351 0-.176-.199-.352-.398-.352-.2 0-.398.176-.398.352 0 .175.132.351.398.351zm4.579 36.842c.93 0 1.726-.702 1.726-1.522 0-.82-.796-1.523-1.726-1.523-.929 0-1.725.703-1.725 1.523 0 .878.796 1.523 1.725 1.523z" fill="#fff"/><path fill-rule="evenodd" clip-rule="evenodd" d="M12.053 39.81c.266 0 .465-.176.465-.41 0-.235-.2-.41-.465-.41s-.464.175-.464.41c0 .234.199.41.464.41z" fill="#3F4243"/></svg>