<?xml version="1.0" encoding="utf-8"?><svg xmlns="http://www.w3.org/2000/svg" xmlns:xlink="http://www.w3.org/1999/xlink"><symbol viewBox="0 0 430.113 430.114" id="facebook" xmlns="http://www.w3.org/2000/svg"><path d="M158.081 83.3v59.218h-43.385v72.412h43.385v215.183h89.122V214.936h59.805s5.601-34.721 8.316-72.685H247.54V92.74c0-7.4 9.717-17.354 19.321-17.354h48.557V.001h-66.021C155.878-.004 158.081 72.48 158.081 83.3z"/></symbol><symbol viewBox="0 0 199 53" id="logo" xmlns="http://www.w3.org/2000/svg"><path d="M27.212 22.8h-4.294v2.4h4.095v3.1h-4.095v2.4h4.394v3.1h-8.089V19.7h8.09v3.1h-.1zm5.692-3.1l2.397 9.2 2.996-9.2h2.896l2.996 9.2 2.396-9.2h3.895l-4.194 14.2H42.49l-2.796-8.2-2.796 8.2h-3.795L28.91 19.7h3.994zm28.86 4.7c-.899-1-1.897-1.6-3.195-1.6-.6 0-1.099.1-1.498.3-.5.2-.9.5-1.199.8-.3.3-.599.8-.799 1.2-.2.5-.3 1-.3 1.5 0 .6.1 1.1.3 1.6.2.5.5.9.8 1.2.299.4.698.6 1.198.8.499.2.998.3 1.498.3 1.198 0 2.197-.5 3.195-1.5v4.4l-.4.1c-.499.4-.998.5-1.497.6-.5.1-.999.1-1.398.1-.999 0-1.898-.2-2.796-.6-.9-.4-1.698-.9-2.397-1.6-.7-.7-1.198-1.5-1.598-2.4-.4-.9-.599-1.9-.599-3s.2-2.1.6-3c.399-.9.998-1.7 1.597-2.4a6.07 6.07 0 0 1 2.397-1.5c.898-.4 1.797-.6 2.796-.6.599 0 1.098.1 1.697.2.5.1 1.099.3 1.698.6v4.5h-.1zm1.798 2.4c0-1.1.2-2 .599-2.9.4-.9.899-1.7 1.598-2.4.699-.7 1.498-1.2 2.496-1.6.999-.4 1.997-.6 3.196-.6 1.098 0 2.197.2 3.195.6.999.4 1.798.9 2.497 1.6.699.7 1.198 1.5 1.598 2.4.399.9.599 1.9.599 2.9s-.2 2-.6 2.9c-.399.9-.898 1.7-1.597 2.4-.7.7-1.498 1.2-2.497 1.6-.998.4-1.997.6-3.195.6-1.199 0-2.197-.2-3.196-.6-.998-.4-1.797-.9-2.496-1.6-.7-.7-1.199-1.5-1.598-2.4-.4-.9-.6-1.9-.6-2.9zm3.894 0c0 .6.1 1.1.3 1.6.2.5.5.9.899 1.2.399.4.799.6 1.298.8.5.2.998.3 1.498.3.499 0 1.098-.1 1.498-.3.499-.2.898-.5 1.298-.8.4-.4.699-.8.899-1.2.2-.5.3-1 .3-1.6 0-.6-.1-1.1-.3-1.6-.2-.5-.5-.9-.9-1.2-.399-.4-.798-.6-1.297-.8-.5-.2-.999-.3-1.498-.3-.5 0-1.099.1-1.498.3-.5.2-.899.5-1.298.8-.4.4-.7.8-.9 1.2-.199.5-.299 1-.299 1.6zm13.581 7.1V19.7h3.695l6.79 8.7v-8.7h3.696v14.2h-3.695l-6.79-8.7v8.7h-3.696zm25.865-11.1h-4.394v2.4h3.994v3.1h-3.994v5.6h-3.695V19.7h8.089v3.1zM138.657 46.4h-9.986c-8.288 0-15.079-6.8-15.079-15.1h3.096c0 6.6 5.392 11.9 11.883 11.9h9.987c6.59 0 11.883-5.4 11.883-11.9h3.096c.1 8.4-6.591 15.1-14.88 15.1zm14.98-25h-3.096c0-6.6-5.393-11.9-11.884-11.9h-9.986c-6.591 0-11.883 5.4-11.883 11.9h-3.096c0-8.3 6.791-15.1 15.079-15.1h9.986c8.189 0 14.88 6.8 14.88 15.1z"/><path d="M110.197 28.3v-3.1h9.687v3.1h-9.687zm0 2.5v3.1h9.986v-3.1h-9.986zm0-11.1v3.1h9.986v-3.1h-9.986zM128.671 11.9V15h9.987v-3.1h-9.987zm0-11V4h9.987V.9h-9.987zm0 48.001v3.1h9.987v-3.1h-9.987zm0-11.1v3.1h9.987v-3.1h-9.987zM147.146 28.3v-3.1h9.686v3.1h-9.686zm0 2.5v3.1h9.986v-3.1h-9.986zm0-11.1v3.1h9.986v-3.1h-9.986zm-6.292 14.2h-4.593l-3.495-5.5v5.5h-3.695V19.7h5.692c.799 0 1.498.1 2.097.3.599.2 1.098.5 1.498.9.399.4.699.9.899 1.4.199.5.299 1.1.299 1.7 0 1.1-.299 2-.799 2.6-.499.7-1.298 1.1-2.296 1.4l4.393 5.9zm-8.088-7.9h.699c.699 0 1.298-.2 1.697-.5.4-.3.599-.7.599-1.3 0-.6-.199-1-.599-1.3-.399-.3-.898-.5-1.697-.5h-.699V26zm27.661 7.9V19.7h3.695l6.791 8.7v-8.7h3.695v14.2h-3.695l-6.791-8.7v8.7h-3.695zm26.963-9.5c-.899-1-1.897-1.6-3.196-1.6-.599 0-1.098.1-1.498.3-.499.2-.898.5-1.198.8-.3.3-.599.8-.799 1.2-.2.5-.299 1-.299 1.5 0 .6.099 1.1.299 1.6.2.5.499.9.799 1.2.3.4.699.6 1.198.8.5.2.999.3 1.498.3 1.199 0 2.197-.5 3.196-1.5v4.4l-.4.1c-.599.2-1.098.3-1.597.4-.5.1-.999.1-1.398.1-.999 0-1.898-.2-2.797-.6-.898-.4-1.697-.9-2.396-1.6-.699-.7-1.199-1.5-1.598-2.4-.399-.9-.599-1.9-.599-3s.2-2.1.599-3c.399-.9.999-1.7 1.598-2.4.699-.7 1.498-1.2 2.396-1.5.899-.4 1.798-.6 2.797-.6.599 0 1.098.1 1.697.2s1.099.3 1.698.6v4.7zm11.284-1.6h-4.394v2.4h4.095v3.1h-4.095v2.4h4.394v3.1h-8.089V19.7h8.089v3.1zM.849 33.9V19.7h3.695l6.79 8.7v-8.7h3.695v14.2h-3.695l-6.79-8.7v8.7H.849z"/></symbol><symbol viewBox="0 0 300 300" id="telegram" xmlns="http://www.w3.org/2000/svg"><path d="M5.299 144.645l69.126 25.8 26.756 86.047c1.712 5.511 8.451 7.548 12.924 3.891l38.532-31.412a11.496 11.496 0 0 1 14.013-.391l69.498 50.457c4.785 3.478 11.564.856 12.764-4.926L299.823 29.22c1.31-6.316-4.896-11.585-10.91-9.259L5.218 129.402c-7.001 2.7-6.94 12.612.081 15.243zm91.57 12.066l135.098-83.207c2.428-1.491 4.926 1.792 2.841 3.726L123.313 180.87a23.112 23.112 0 0 0-7.163 13.829l-3.798 28.146c-.503 3.758-5.782 4.131-6.819.494l-14.607-51.325c-1.673-5.854.765-12.107 5.943-15.303z"/></symbol><symbol viewBox="0 0 612 612" id="twitter" xmlns="http://www.w3.org/2000/svg"><path d="M612 116.258a250.714 250.714 0 0 1-72.088 19.772c25.929-15.527 45.777-40.155 55.184-69.411-24.322 14.379-51.169 24.82-79.775 30.48-22.907-24.437-55.49-39.658-91.63-39.658-69.334 0-125.551 56.217-125.551 125.513 0 9.828 1.109 19.427 3.251 28.606-104.326-5.24-196.835-55.223-258.75-131.174-10.823 18.51-16.98 40.078-16.98 63.101 0 43.559 22.181 81.993 55.835 104.479a125.556 125.556 0 0 1-56.867-15.756v1.568c0 60.806 43.291 111.554 100.693 123.104-10.517 2.83-21.607 4.398-33.08 4.398-8.107 0-15.947-.803-23.634-2.333 15.985 49.907 62.336 86.199 117.253 87.194-42.947 33.654-97.099 53.655-155.916 53.655-10.134 0-20.116-.612-29.944-1.721 55.567 35.681 121.536 56.485 192.438 56.485 230.948 0 357.188-191.291 357.188-357.188l-.421-16.253c24.666-17.593 46.005-39.697 62.794-64.861z"/></symbol><symbol viewBox="0 0 334.623 334.623" id="youtube" xmlns="http://www.w3.org/2000/svg"><path d="M175.329 287.017c-.007 0 0 0 0 0-38.053 0-79.481-1.202-123.125-3.554-25.784-1.414-45.785-21.292-48.632-48.349-4.762-45.2-4.762-90.83 0-135.625 2.841-26.832 22.815-46.71 48.574-48.33 75.271-4.737 152.721-4.737 230.312 0 26.061 1.581 45.586 20.99 48.6 48.304 4.749 43.246 4.756 88.87.006 135.632-2.744 27.038-22.25 46.472-48.535 48.356-33.079 2.364-69.147 3.566-107.2 3.566zm-8.901-226.565c-37.931 0-76.113 1.195-113.485 3.541-19.685 1.234-34.39 16.048-36.594 36.851-4.666 43.895-4.666 88.613 0 132.926 2.204 20.971 16.89 35.778 36.543 36.858 43.413 2.339 84.609 3.535 122.425 3.535 37.751 0 73.51-1.189 106.287-3.528 19.833-1.427 34.57-16.228 36.659-36.839 4.666-45.862 4.666-90.58.006-132.926-2.294-20.868-17.005-35.688-36.594-36.877-38.53-2.352-77.31-3.541-115.247-3.541zm-31.852 61.331v88.208l84.706-43.805-84.706-44.403z"/></symbol></svg>