<svg width="59" height="42" fill="none" xmlns="http://www.w3.org/2000/svg"><path fill-rule="evenodd" clip-rule="evenodd" d="M3.538.8h51.57c1.924 0 3.517 1.406 3.517 3.104v34.851c0 1.699-1.593 3.105-3.518 3.105H3.537C1.614 41.86.02 40.454.02 38.755V3.905C.02 2.204 1.613.8 3.538.8z" fill="#3F4243"/><path d="M54.045 5.076H4.6v32.39h49.445V5.077z" fill="#fff"/><path fill-rule="evenodd" clip-rule="evenodd" d="M29.356 4.197c.73 0 1.327-.527 1.327-1.171 0-.645-.597-1.172-1.327-1.172s-1.328.527-1.328 1.172c-.066.586.531 1.171 1.328 1.171zm-6.106-.82c.265 0 .464-.176.464-.41 0-.234-.199-.41-.464-.41-.266 0-.465.176-.465.41.066.234.265.41.465.41zm26.813 35.554h2.257c.331 0 .663.234.663.586 0 .293-.265.585-.663.585h-2.257c-.332 0-.664-.234-.664-.585 0-.293.332-.586.664-.586z" fill="#fff"/></svg>