<svg width="17" height="16" viewBox="0 0 17 16" fill="none" xmlns="http://www.w3.org/2000/svg">
<path d="M0.561646 7.80029C0.561646 6.70029 0.761374 5.80029 1.16082 4.90029C1.56026 4.00029 2.05957 3.20029 2.7586 2.50029C3.45763 1.80029 4.25652 1.30029 5.25513 0.900293C6.25375 0.500293 7.25236 0.300293 8.45069 0.300293C9.54917 0.300293 10.6476 0.500293 11.6463 0.900293C12.6449 1.30029 13.4438 1.80029 14.1428 2.50029C14.8418 3.20029 15.3411 4.00029 15.7406 4.90029C16.14 5.80029 16.3397 6.80029 16.3397 7.80029C16.3397 8.80029 16.14 9.80029 15.7406 10.7003C15.3411 11.6003 14.8418 12.4003 14.1428 13.1003C13.4438 13.8003 12.6449 14.3003 11.6463 14.7003C10.6476 15.1003 9.64903 15.3003 8.45069 15.3003C7.25236 15.3003 6.25375 15.1003 5.25513 14.7003C4.25652 14.3003 3.45763 13.8003 2.7586 13.1003C2.05957 12.4003 1.56026 11.6003 1.16082 10.7003C0.761374 9.80029 0.561646 8.80029 0.561646 7.80029ZM4.45624 7.80029C4.45624 8.40029 4.5561 8.90029 4.75583 9.40029C4.95555 9.90029 5.25513 10.3003 5.65458 10.6003C6.05402 11.0003 6.45346 11.2003 6.95277 11.4003C7.45208 11.6003 7.95138 11.7003 8.45069 11.7003C8.95 11.7003 9.54917 11.6003 9.94861 11.4003C10.4479 11.2003 10.8474 10.9003 11.2468 10.6003C11.6463 10.2003 11.9458 9.80029 12.1456 9.40029C12.3453 8.90029 12.4451 8.40029 12.4451 7.80029C12.4451 7.20029 12.3453 6.70029 12.1456 6.20029C11.9458 5.70029 11.6463 5.30029 11.2468 5.00029C10.8474 4.60029 10.4479 4.40029 9.94861 4.20029C9.4493 4.00029 8.95 3.90029 8.45069 3.90029C7.95138 3.90029 7.35222 4.00029 6.95277 4.20029C6.45346 4.40029 6.05402 4.70029 5.65458 5.00029C5.25513 5.40029 4.95555 5.80029 4.75583 6.20029C4.5561 6.70029 4.45624 7.20029 4.45624 7.80029Z" fill="white"/>
</svg>
