<svg width="12" height="16" viewBox="0 0 12 16" fill="none" xmlns="http://www.w3.org/2000/svg">
<path d="M11.3899 6.39966C10.4911 5.39966 9.4925 4.79966 8.19431 4.79966C7.59514 4.79966 7.09584 4.89966 6.69639 5.09966C6.19709 5.29966 5.79765 5.59966 5.49806 5.89966C5.19848 6.19966 4.89889 6.69966 4.69917 7.09966C4.49945 7.59966 4.39958 8.09966 4.39958 8.59966C4.39958 9.19966 4.49945 9.69966 4.69917 10.1997C4.89889 10.6997 5.19848 11.0997 5.49806 11.3997C5.79765 11.7997 6.19709 11.9997 6.69639 12.1997C7.1957 12.3997 7.695 12.4997 8.19431 12.4997C9.39264 12.4997 10.3913 11.9997 11.3899 10.9997V15.3997L10.9904 15.4997C10.3913 15.6997 9.89194 15.7997 9.39264 15.8997C8.89333 15.9997 8.39403 15.9997 7.99459 15.9997C6.99598 15.9997 6.09723 15.7997 5.19848 15.3997C4.29973 14.9997 3.50084 14.4997 2.80182 13.7997C2.10279 13.0997 1.60348 12.2997 1.20403 11.3997C0.804587 10.4997 0.604858 9.49966 0.604858 8.39966C0.604858 7.29966 0.804587 6.29966 1.20403 5.39966C1.60348 4.49966 2.20265 3.69966 2.80182 2.99966C3.50084 2.29966 4.29973 1.79966 5.19848 1.49966C6.09723 1.09966 6.99598 0.899658 7.99459 0.899658C8.59376 0.899658 9.09306 0.999659 9.69223 1.09966C10.2914 1.19966 10.7907 1.39966 11.3899 1.69966V6.39966Z" fill="white"/>
</svg>
