<svg width="11" height="16" viewBox="0 0 11 16" fill="none" xmlns="http://www.w3.org/2000/svg">
<path d="M10.7641 5.40059C9.86538 4.40059 8.86676 3.80058 7.56857 3.80058C6.9694 3.80058 6.4701 3.90058 6.07065 4.10058C5.57134 4.30058 5.1719 4.60059 4.87232 4.90059C4.57274 5.20059 4.27315 5.70058 4.07343 6.10058C3.8737 6.60058 3.77385 7.10058 3.77385 7.60058C3.77385 8.20058 3.8737 8.70059 4.07343 9.20059C4.27315 9.70059 4.57274 10.1006 4.87232 10.4006C5.1719 10.8006 5.57134 11.0006 6.07065 11.2006C6.56996 11.4006 7.06926 11.5006 7.56857 11.5006C8.7669 11.5006 9.76552 11.0006 10.7641 10.0006V14.4006L10.3647 14.5006C9.86538 14.9006 9.36607 15.0006 8.86677 15.1006C8.36746 15.2006 7.86815 15.2006 7.46871 15.2006C6.4701 15.2006 5.57135 15.0006 4.6726 14.6006C3.77385 14.2006 2.97496 13.7006 2.27593 13.0006C1.5769 12.3006 1.0776 11.5006 0.678153 10.6006C0.278708 9.70058 0.0789795 8.70058 0.0789795 7.60058C0.0789795 6.50058 0.278708 5.50058 0.678153 4.60058C1.0776 3.70058 1.67676 2.90059 2.27593 2.20059C2.97496 1.50059 3.77385 1.00059 4.6726 0.700586C5.57135 0.300586 6.4701 0.100586 7.46871 0.100586C8.06788 0.100586 8.56719 0.200585 9.16635 0.300585C9.66566 0.400585 10.2648 0.600585 10.864 0.900585V5.40059H10.7641Z" fill="white"/>
</svg>
