<svg width="12" height="15" viewBox="0 0 12 15" fill="none" xmlns="http://www.w3.org/2000/svg">
<path d="M11.8544 14.9007H7.2608L3.76566 9.40069V14.9007H0.0708008V0.700684H5.76288C6.56177 0.700684 7.2608 0.800683 7.85997 1.00068C8.45914 1.20068 8.95844 1.50068 9.35789 1.90068C9.75733 2.30068 10.0569 2.80068 10.2566 3.30068C10.4564 3.80068 10.5562 4.40069 10.5562 5.00069C10.5562 6.10069 10.2566 7.00069 9.75733 7.60069C9.25802 8.30069 8.45913 8.70069 7.46052 9.00069L11.8544 14.9007ZM3.76566 7.00069H4.46468C5.16371 7.00069 5.76288 6.80069 6.16232 6.50069C6.56176 6.20069 6.76149 5.80069 6.76149 5.20069C6.76149 4.60069 6.56176 4.20068 6.16232 3.90068C5.76288 3.60068 5.26357 3.40068 4.46468 3.40068H3.76566V7.00069Z" fill="white"/>
</svg>
